<svg width="119" height="119" viewBox="0 0 119 119" fill="none" xmlns="http://www.w3.org/2000/svg">
<g clip-path="url(#clip0_12_2232)">
<path d="M119 85.0106H107.658V96.3528H119V85.0106Z" fill="white"/>
<path d="M107.658 96.3529H102.005V102.005H107.658V96.3529Z" fill="white"/>
<path d="M107.658 62.3263V45.3316H113.348V28.3369H96.353V45.3316H102.006V62.3263H107.658Z" fill="white"/>
<path d="M102.006 102.005H96.353V107.695H102.006V102.005Z" fill="white"/>
<path d="M102.006 62.3262H96.353V68.0159H102.006V62.3262Z" fill="white"/>
<path d="M96.3533 107.695H90.6636V119H96.3533V107.695Z" fill="white"/>
<path d="M96.3533 68.016H90.6636V73.6685H96.3533V68.016Z" fill="white"/>
<path d="M90.6627 73.6685H85.0103V79.3581H90.6627V73.6685Z" fill="white"/>
<path d="M85.0105 79.358H79.3208V119H85.0105V79.358Z" fill="white"/>
<path d="M85.0106 62.3263V16.9947H90.6631V0H73.6685V16.9947H79.321V62.3263H85.0106ZM79.321 5.68969H85.0106V11.3422H79.321V5.68969Z" fill="white"/>
<path d="M79.321 62.3262H73.6685V68.0159H79.321V62.3262Z" fill="white"/>
<path d="M73.6681 68.016H68.0156V119H73.6681V68.016Z" fill="white"/>
<path d="M50.9844 56.6738H56.6741V119H62.3266V56.6738H68.0163V39.6791H50.9844V56.6738Z" fill="white"/>
<path d="M50.984 68.016H45.3315V119H50.984V68.016Z" fill="white"/>
<path d="M45.3317 62.3262H39.6792V68.0159H45.3317V62.3262Z" fill="white"/>
<path d="M39.6794 90.6631H33.9897V119H39.6794V90.6631Z" fill="white"/>
<path d="M39.6786 34.0265H45.3311V16.9946H28.3364V34.0265H33.9889V62.3262H39.6786V34.0265Z" fill="white"/>
<path d="M33.9889 85.0106H28.3364V90.6631H33.9889V85.0106Z" fill="white"/>
<path d="M28.3366 107.695H22.6841V119H28.3366V107.695Z" fill="white"/>
<path d="M28.3366 79.358H22.6841V85.0105H28.3366V79.358Z" fill="white"/>
<path d="M28.337 73.6685V56.6738H11.3423V73.6685H16.9948V79.3582H22.6845V73.6685H28.337ZM16.9948 68.016V62.3263H22.6845V68.016H16.9948Z" fill="white"/>
<path d="M22.6843 102.005H16.9946V107.695H22.6843V102.005Z" fill="white"/>
<path d="M16.9948 96.3529H11.3423V102.005H16.9948V96.3529Z" fill="white"/>
<path d="M11.3422 85.0106H0V96.3528H11.3422V85.0106Z" fill="white"/>
</g>
<defs>
<clipPath id="clip0_12_2232">
<rect width="119" height="119" fill="white"/>
</clipPath>
</defs>
</svg>
