<svg width="125" height="125" viewBox="0 0 125 125" fill="none" xmlns="http://www.w3.org/2000/svg">
<path d="M125 62.5195H119.023V86.3086H125V62.5195Z" fill="white"/>
<path d="M119.023 86.3086H113.086V92.2852H119.023V86.3086Z" fill="white"/>
<path d="M119.023 56.543H113.086V62.5195H119.023V56.543Z" fill="white"/>
<path d="M113.086 92.2852H107.148V98.2227H113.086V92.2852Z" fill="white"/>
<path d="M113.086 50.6055H107.148V56.543H113.086V50.6055Z" fill="white"/>
<path d="M107.148 98.2227H11.9141V104.16H107.148V98.2227Z" fill="white"/>
<path d="M107.148 44.668H95.2344V50.6055H107.148V44.668Z" fill="white"/>
<path d="M95.2344 38.6914H89.2578V44.668H95.2344V38.6914Z" fill="white"/>
<path d="M89.2578 32.7539H83.3203V38.6914H89.2578V32.7539Z" fill="white"/>
<path d="M83.3203 26.7773H71.4062V32.7539H83.3203V26.7773Z" fill="white"/>
<path d="M71.4063 20.8398H53.5547V26.7773H71.4063V20.8398Z" fill="white"/>
<path d="M53.5547 26.7773H41.6406V32.7539H53.5547V26.7773Z" fill="white"/>
<path d="M41.6406 32.7539H35.7031V38.6914H41.6406V32.7539Z" fill="white"/>
<path d="M35.7031 38.6914H29.7656V50.6055H35.7031V38.6914Z" fill="white"/>
<path d="M29.7656 50.6055H11.9141V56.543H29.7656V50.6055Z" fill="white"/>
<path d="M11.9141 92.2852H5.9375V98.2227H11.9141V92.2852Z" fill="white"/>
<path d="M11.9141 56.543H5.9375V62.5195H11.9141V56.543Z" fill="white"/>
<path d="M5.9375 62.5195H0V92.2852H5.9375V62.5195Z" fill="white"/>
</svg>
