<svg width="122" height="112" viewBox="0 0 122 112" fill="none" xmlns="http://www.w3.org/2000/svg">
<path d="M5.795 29.8462H116.205V105.372H122V6.62811H116.205V24.0512H5.795V6.62811H0V105.372H5.795V29.8462Z" fill="white"/>
<path d="M116.205 105.372H5.79492V111.205H116.205V105.372Z" fill="white"/>
<path d="M17.4233 41.4744V93.7819H104.577V41.4744H17.4233ZM52.2696 70.5256H46.4746V76.3206H40.6796V82.1537H34.8465V76.3206H40.6796V70.5256H46.4746V64.7306H40.6796V58.8975H34.8465V53.1025H40.6796V58.8975H46.4746V64.7306H52.2696V70.5256ZM87.154 70.5256H63.8977V64.7306H87.154V70.5256Z" fill="white"/>
<path d="M40.6793 12.4231H34.8462V18.2562H40.6793V12.4231Z" fill="white"/>
<path d="M29.0513 12.4231H23.2563V18.2562H29.0513V12.4231Z" fill="white"/>
<path d="M17.4229 12.4231H11.6279V18.2562H17.4229V12.4231Z" fill="white"/>
<path d="M116.205 0.794983H5.79492V6.62811H116.205V0.794983Z" fill="white"/>
</svg>
