<svg width="33" height="33" viewBox="0 0 33 33" fill="none" xmlns="http://www.w3.org/2000/svg">
<g clip-path="url(#clip0_1128_7108)">
<path d="M32.9304 1.55945H31.4104V6.12945H32.9304V1.55945Z" fill="white"/>
<path d="M31.4104 6.12946H29.8804V9.17946H31.4104V6.12946Z" fill="white"/>
<path d="M31.4104 0.0394287H28.3604V1.55943H31.4104V0.0394287Z" fill="white"/>
<path d="M29.8804 9.17944H28.3604V12.2294H29.8804V9.17944Z" fill="white"/>
<path d="M28.3604 12.2294H26.8304V15.2794H28.3604V12.2294Z" fill="white"/>
<path d="M28.3604 1.55945H26.8304V4.60945H28.3604V1.55945Z" fill="white"/>
<path d="M26.8304 15.2794H25.3104V18.3194H26.8304V15.2794Z" fill="white"/>
<path d="M26.8304 4.60944H25.3104V7.65944H26.8304V4.60944Z" fill="white"/>
<path d="M25.3104 22.8994H23.7904V27.4694H25.3104V22.8994Z" fill="white"/>
<path d="M25.3104 18.3195H23.7904V21.3695H25.3104V18.3195Z" fill="white"/>
<path d="M25.3104 7.65942H23.7904V10.7094H25.3104V7.65942Z" fill="white"/>
<path d="M23.7904 10.7094H22.2604V13.7494H23.7904V10.7094Z" fill="white"/>
<path d="M22.2604 25.9394H20.7404V27.4694H19.2204V25.9394H17.6904V24.4194H16.1704V25.9394H14.6404V22.8994H13.1204V27.4694H11.6004V28.9894H10.0704V30.5094H2.45044V32.0394H19.2204V30.5094H22.2604V28.9894H23.7904V27.4694H22.2604V25.9394Z" fill="white"/>
<path d="M23.7904 21.3694H20.7404V22.8994H23.7904V21.3694Z" fill="white"/>
<path d="M22.2604 13.7495H20.7404V16.7995H22.2604V13.7495Z" fill="white"/>
<path d="M20.7404 21.3694V16.7994H19.2204V19.8494H16.1704V21.3694H20.7404Z" fill="white"/>
<path d="M16.1704 21.3694H14.6404V22.8994H16.1704V21.3694Z" fill="white"/>
<path d="M16.1704 12.2294H14.6404V13.7494H16.1704V12.2294Z" fill="white"/>
<path d="M14.6404 13.7495H13.1204V15.2795H14.6404V13.7495Z" fill="white"/>
<path d="M14.6404 10.7094H2.45044V12.2294H14.6404V10.7094Z" fill="white"/>
<path d="M11.6004 22.8994H10.0704V24.4194H11.6004V22.8994Z" fill="white"/>
<path d="M13.1204 15.2794H8.55042V16.7994H13.1204V15.2794Z" fill="white"/>
<path d="M10.0704 24.4194H8.55042V25.9394H10.0704V24.4194Z" fill="white"/>
<path d="M10.0704 21.3694H5.50043V22.8994H10.0704V21.3694Z" fill="white"/>
<path d="M8.55043 16.7994H5.50043V18.3194H8.55043V16.7994Z" fill="white"/>
<path d="M8.55041 25.9395H3.98041V27.4695H8.55041V25.9395Z" fill="white"/>
<path d="M5.50041 18.3195H3.98041V21.3695H5.50041V18.3195Z" fill="white"/>
<path d="M3.98044 27.4694H2.45044V28.9894H3.98044V27.4694Z" fill="white"/>
<path d="M2.45042 28.9894H0.93042V30.5094H2.45042V28.9894Z" fill="white"/>
</g>
<defs>
<clipPath id="clip0_1128_7108">
<rect width="32" height="32" fill="white" transform="translate(0.93042 0.0394287)"/>
</clipPath>
</defs>
</svg>
