<svg width="14" height="14" viewBox="0 0 14 14" fill="none" xmlns="http://www.w3.org/2000/svg">
<g clip-path="url(#clip0_1545_12117)">
<path d="M7 13.5C10.5899 13.5 13.5 10.5899 13.5 7C13.5 3.41015 10.5899 0.5 7 0.5C3.41015 0.5 0.5 3.41015 0.5 7C0.5 10.5899 3.41015 13.5 7 13.5Z" stroke="white" stroke-linecap="round" stroke-linejoin="round"/>
<path d="M0.5 7H13.5" stroke="white" stroke-linecap="round" stroke-linejoin="round"/>
<path d="M9.5 7C9.3772 9.37699 8.50168 11.6533 7 13.5C5.49832 11.6533 4.6228 9.37699 4.5 7C4.6228 4.62301 5.49832 2.34665 7 0.5C8.50168 2.34665 9.3772 4.62301 9.5 7V7Z" stroke="white" stroke-linecap="round" stroke-linejoin="round"/>
</g>
<defs>
<clipPath id="clip0_1545_12117">
<rect width="14" height="14" fill="white"/>
</clipPath>
</defs>
</svg>
